<?xml version="1.0" encoding="UTF-8" standalone="no"?>
<svg
   width="846.21478"
   height="1391.4525"
   viewBox="0 0 846.21478 1391.4525"
   version="1.1"
   id="svg1"
   sodipodi:docname="Playfield 3.svg"
   xml:space="preserve"
   inkscape:version="1.4 (e7c3feb1, 2024-10-09)"
   xmlns:inkscape="http://www.inkscape.org/namespaces/inkscape"
   xmlns:sodipodi="http://sodipodi.sourceforge.net/DTD/sodipodi-0.dtd"
   xmlns="http://www.w3.org/2000/svg"
   xmlns:svg="http://www.w3.org/2000/svg"
   xmlns:rdf="http://www.w3.org/1999/02/22-rdf-syntax-ns#"
   xmlns:cc="http://creativecommons.org/ns#"
   xmlns:dc="http://purl.org/dc/elements/1.1/"><defs
     id="defs1" /><sodipodi:namedview
     id="namedview1"
     pagecolor="#ffffff"
     bordercolor="#000000"
     borderopacity="0.25"
     inkscape:showpageshadow="2"
     inkscape:pageopacity="0.0"
     inkscape:pagecheckerboard="0"
     inkscape:deskcolor="#d1d1d1"
     inkscape:zoom="0.55214524"
     inkscape:cx="502.58515"
     inkscape:cy="699.99698"
     inkscape:window-width="1440"
     inkscape:window-height="900"
     inkscape:window-x="0"
     inkscape:window-y="0"
     inkscape:window-maximized="0"
     inkscape:current-layer="svg1" /><title
     id="title1">Toque o Sino - Playfield (vetorizado, simétrico)</title><path
     id="path1"
     style="fill:#000000"
     d="m 425.61328,0.015625 c -1.93015,0.10988875 -3.93496,0.7946436 -6.39844,2.0742188 -1.40964,0.7321898 -9.47833,1.7680696 -18.5,2.375 C 308.60002,10.661824 220.61053,50.141096 152.63477,115.77539 90.097064,176.15895 46.113931,259.95011 31.775391,346.01953 c -1.37439,8.25 -2.790515,18.14998 -3.146485,22 -0.35597,3.85 -1.307884,8.0531 -2.115234,9.3418 -1.36874,2.1848 -1.917173,2.30488 -8.132813,1.76758 -8.24955,-0.7131 -12.9452815,0.79192 -15.2636715,4.89062 -1.58692,2.8055 -1.7443731,35.13404 -2.40820312,498.71094 L 0,1378.4434 l 2.1582031,4.4589 c 1.55745,3.2172 3.3270219,5.0515 6.3574219,6.5918 7.18057,3.65 14.954289,1.5817 20.136719,-5.3593 l 2.0625,-2.7618 0.5,-217.8437 c 0.275,-119.8139 0.725,-218.05937 1,-218.32227 0.275,-0.263 2.152155,-1.1631 4.171875,-2 5.6958,-2.36 6.740513,-4.91489 8.908203,-21.80469 2.52012,-19.6359 6.854062,-38.4916 12.982422,-56.4707 11.65915,-34.2051 25.47286,-58.12098 47.857426,-82.86328 12.93043,-14.2924 12.91572,-18.88214 -0.0957,-33.05664 -26.68338,-29.0683 -44.321746,-64.48619 -54.324216,-109.08399 -3.15403,-14.0628 -6.490094,-35.9842 -6.496094,-42.6914 -0.007,-7.2277 -2.035701,-11.11283 -6.800781,-13.01953 -7.70976,-3.0848 -7.203125,2.57429 -7.203125,-80.34961 0,-80.1296 -0.294183,-75.51536 4.998047,-78.34766 2.86623,-1.5339 3.775105,-6.26268 4.416015,-22.98828 0.98666,-25.7489 4.923326,-53.98551 11.134766,-79.86133 18.94238,-78.91079 63.024728,-153.09113 121.804688,-204.96875 67.07637,-59.19979 145.05972,-92.013059 232.2168,-97.712889 9.127,-0.59688 10.3908,-0.463809 13.5,1.431641 4.38676,2.67426 9.27754,2.665106 13.63086,-0.02539 3.1408,-1.94112 4.31223,-2.064985 13.61718,-1.447265 66.91374,4.44216 126.71129,23.78069 180.58594,58.404296 101.58803,65.287577 167.25656,172.568617 181.59766,296.667967 2.7781,24.0402 4.83006,63.77158 4.91406,95.14258 0.0697,26.03525 0.0839,54.30927 0.0839,482.25977 v 416.59762 l -2.32812,3.2637 c -3.3738,4.7301 -7.41706,6.4097 -16.84766,6.998 -13.1608,0.8211 -20.69519,-3.2384 -23.27929,-12.5429 -0.6925,-2.4932 -1.03907,-61.9826 -1.03907,-180.502 -0.006,-194.95598 0.4782,-180.9585 -6.4414,-186.2363 -7.4518,-5.6838 -19.79985,-3.69218 -24.52735,3.957 -2.034,3.2867 -2.0332,3.8871 -2.0332,190.1797 0.004,185.8248 0.0158,186.9 2.02734,190.1992 1.233,2.0225 3.77653,4.095 6.51563,5.3067 4.2943,1.8995 6.39035,1.9739 47.22266,1.6816 47.50738,-0.34 46.87106,-0.2496 51.13476,-7.1484 l 2.0957,-3.3926 V 884.13672 387.49023 l -3.40039,-3.71093 c -3.2574,-3.5544 -3.72001,-3.727 -10.94531,-4.0918 -8.5754,-0.4331 -7.94117,0.40515 -9.20117,-12.16797 -3.0873,-30.80827 -16.70314,-82.09557 -30.39844,-114.5 C 775.73588,213.89926 749.95607,172.30089 722.51367,140.46289 701.5721,116.16708 669.18095,87.50198 642.71484,69.84375 583.3094,30.20836 517.91558,8.2398336 446.71484,3.9960938 c -7.72445,-0.4604 -12.23686,-1.237595 -15.15429,-2.609375 -2.16136,-1.0162702 -4.01712,-1.48098255 -5.94727,-1.3710938 z m -0.84766,4.1875 c 1.01279,-0.2060933 2.08479,-0.1790623 3.14063,0.1074219 1.40778,0.3819789 2.78775,1.2269262 3.9668,2.5976562 3.1056,3.6104599 2.95231,6.1531699 -0.58203,9.6874999 -3.45576,3.45576 -5.85459,3.67101 -9.44141,0.849609 -2.01458,-1.584668 -2.63477,-2.959398 -2.63477,-5.84375 0,-4.0677449 2.51242,-6.7801571 5.55078,-7.398437 z m 7.8086,85.425781 c -61.52498,-1.27682 -122.8263,16.022774 -175.35938,51.042974 -19.69534,13.12952 -28.93815,20.7053 -46.11523,37.80078 -16.10308,16.0266 -26.49599,28.62187 -38,46.05078 -52.65931,79.78037 -66.28366,175.22288 -37.97656,266.02148 2.22754,7.1451 6.65901,12.42804 11.68554,13.93164 8.28719,2.479 16.54925,-0.76702 20.15625,-7.91992 3.03012,-6.0089 2.85561,-8.861 -1.29296,-21.0918 -4.45691,-13.1399 -6.95463,-23.69353 -9.67579,-40.89453 -2.81503,-17.7944 -3.06844,-56.57841 -0.48047,-73.35742 14.12084,-91.55138 67.11496,-167.08303 146.14258,-208.29492 64.70801,-33.7444 143.69104,-39.65599 212.55664,-15.9082 23.78849,8.20328 57.01136,26.84605 77.60547,43.54687 11.16742,9.05624 30.22155,27.79113 39.62696,38.96289 18.20622,21.62538 39.88243,59.35368 49.12304,85.5 20.74343,58.6935 21.89561,117.20874 3.48828,177.17774 -1.89743,6.1816 -2.03913,7.72318 -1.02343,11.11328 2.56439,8.5592 9.8502,13.08557 18.88672,11.73047 7.83468,-1.1749 11.09463,-5.48697 15.58007,-20.60547 6.8035,-22.9322 9.96643,-41.18732 11.76953,-67.91602 C 738.01998,286.83072 660.03851,160.29163 541.71484,112.17578 506.48504,97.849727 469.48921,90.394998 432.57422,89.628906 Z m -6.27734,6.390625 c 1.09874,-0.04149 2.25734,0.117078 3.45312,0.511719 7.02832,2.31956 8.88071,10.72477 3.54102,16.06445 -2.1641,2.16411 -3.87105,2.92383 -6.57618,2.92383 -2.70513,0 -4.41207,-0.75972 -6.57617,-2.92383 -6.27118,-6.27117 -1.53301,-16.285724 6.15821,-16.576169 z m 1.32031,38.499999 c -5.95046,0 -10.25738,1.93292 -14.125,6.33789 -9.55454,10.88202 -4.94354,27.53871 8.72265,31.50781 3.97844,1.15547 10.30653,0.53449 14,-1.375 3.43407,-1.77538 7.65611,-6.40076 8.93555,-9.78711 1.67871,-4.44308 1.27716,-12.35033 -0.83789,-16.4746 -3.63435,-7.08684 -8.74202,-10.20899 -16.69531,-10.20899 z m -0.40235,9.47266 c 0.96881,0 1.93803,0.30856 3.41993,0.92773 4.05924,1.69606 5.58007,4.17129 5.58007,9.08008 0,2.62305 -0.72572,4.28631 -2.64648,6.06641 -5.76688,5.34456 -15.35352,1.44198 -15.35352,-6.25 0,-4.72618 1.56222,-7.21772 5.58008,-8.89649 1.4819,-0.61917 2.45112,-0.92773 3.41992,-0.92773 z m -89.74023,47.57617 c -1.37538,-0.0154 -2.78123,0.12606 -4.19922,0.4375 -4.56653,1.00297 -27.77887,15.30485 -41.06055,25.29883 -13.26932,9.98467 -33.62801,29.8945 -43.16601,42.21484 -19.3301,24.96891 -32.74996,51.83694 -41.20899,82.5 -6.43112,23.31209 -7.13086,29.0493 -7.07226,58 0.0494,24.421 0.21732,26.76685 2.77148,38.62695 3.6197,16.8077 7.12615,28.64443 9.41797,31.79493 1.03107,1.4174 3.85548,3.59062 6.27735,4.82812 6.94073,3.5465 13.43275,2.47166 18.85156,-3.11914 5.2191,-5.3847 5.61482,-9.34205 2.11914,-21.21875 -11.5128,-39.1152 -9.67297,-78.40702 5.52344,-117.94336 7.58026,-19.72149 14.34425,-31.96957 27.04296,-48.96875 17.36547,-23.24635 50.78886,-51.13114 67.13282,-56.00781 9.38571,-2.80048 15.31054,-9.95563 15.31054,-18.49219 0,-10.10336 -8.1126,-17.84352 -17.74023,-17.95117 z m 175.91797,0.0254 c -3.48866,0.24357 -6.46993,1.85771 -9.55078,4.73828 -10.13563,9.47672 -5.40687,28.55077 7.87304,31.75586 4.19778,1.01313 20.31051,11.87567 31.54883,21.26953 34.10065,28.50399 57.27727,65.76427 67.9043,109.16602 7.89187,32.23075 7.91498,64.04683 0.0684,92.64844 -2.3783,8.66899 -2.54997,13.43178 -0.61719,17.14648 1.92557,3.7009 5.76236,7.1217 9.21484,8.2168 6.81141,2.1607 15.90216,-0.89693 19.36914,-6.51563 3.97218,-6.4375 8.58599,-30.81064 9.94727,-52.55664 2.82238,-45.0865 -7.61268,-89.83922 -30.09766,-129.08594 -20.13463,-35.14426 -45.49583,-62.03438 -81.18554,-86.08007 -11.43808,-7.70635 -18.66018,-11.10908 -24.47461,-10.70313 z m 2.82226,7.92578 c 7.42529,0 11.71136,9.80736 6.75,15.44531 -5.72008,6.50013 -15.75,2.522 -15.75,-6.24609 0,-4.50765 4.59062,-9.19922 9,-9.19922 z m -178.87109,0.0156 c 2.03865,0.0233 4.03247,0.99145 5.94727,2.90625 3.68696,3.68696 3.96034,8.77222 0.67382,12.55468 -1.32043,1.51968 -3.74313,2.82674 -5.86328,3.16407 -3.02337,0.48103 -4.14043,0.10424 -6.84961,-2.31641 -4.53387,-4.05102 -4.58284,-9.55445 -0.12109,-13.54102 2.09173,-1.86896 4.17424,-2.7909 6.21289,-2.76757 z m 88.07227,53.99804 c -19.59051,0.0616 -39.58915,13.44458 -47.20899,31.5918 -2.8551,6.79965 -3.37916,9.35962 -3.77539,18.4707 -0.35175,8.0883 -0.0577,11.97039 1.25,16.5 5.78024,20.02177 23.0986,35.16765 42.56055,37.22266 9.37694,0.99012 14.7246,0.56363 23.01367,-1.83594 30.61878,-8.86372 45.11967,-45.20832 29.67773,-74.38281 -8.48447,-16.02973 -27.62683,-27.62261 -45.51757,-27.56641 z m 1.38476,34.06836 c 3.56197,0.0611 7.16227,1.35037 10.25977,4.23438 7.78546,7.24886 7.18042,19.5915 -1.26563,25.83594 -3.74862,2.77145 -12.63658,3.54656 -17.08008,1.49023 -3.70405,-1.71413 -7.02556,-5.24278 -8.43359,-8.95899 -4.51882,-11.92646 5.83363,-22.78475 16.51953,-22.60156 z M 14.714844,382.51953 c 3.52044,0 7.5,3.70874 7.5,6.99024 0,4.2083 -0.922976,5.91827 -4.072266,7.54687 -3.33447,1.7243 -3.798084,1.74494 -6.427734,0.30664 -3.1479712,-1.7219 -4.5000002,-3.96339 -4.5000002,-7.46289 0,-3.6796 3.7612902,-7.38086 7.5000002,-7.38086 z m 814.964846,1.10742 c 2.33637,-0.49856 4.96083,0.22651 7.08008,2.34571 3.059,3.0591 3.13447,6.68785 0.20507,9.91015 -2.8928,3.1821 -5.6196,3.90849 -8.75,2.33399 -3.6821,-1.8519 -5.24407,-5.70165 -3.88867,-9.58985 0.96845,-2.77805 3.01714,-4.50143 5.35352,-5 z m -453.22461,15.96094 c -1.84614,0.14332 -3.63283,0.59913 -5.20117,1.41016 -6.90965,3.5731 -9.25633,10.8242 -6.53321,20.1914 4.85074,16.686 15.87774,28.01553 32.31446,33.20313 l 7.17968,2.26562 v 102.76368 c 0,56.51989 0.32097,103.08466 0.71289,103.47656 0.39191,0.3917 1.85441,0.57871 3.25,0.41601 l 2.53711,-0.29492 0.5,-51 0.5,-51 h 12.5 12.5 l 0.5,51 0.5,51 h 3 3 l 0.5,-102.92187 0.5,-102.91993 7.17578,-2.1914 c 16.85152,-5.1455 28.00566,-15.50583 33.32032,-30.95313 2.58921,-7.5256 2.54059,-12.78649 -0.16016,-17.59179 -2.83116,-5.0374 -7.57309,-7.29819 -14.00976,-6.67969 -7.82512,0.7519 -12.82618,6.70161 -12.82618,15.25781 0,5.8114 -2.13277,9.97262 -6.26757,12.23242 -2.73129,1.4927 -6.43385,1.81659 -23.86133,2.08789 -22.69528,0.3532 -27.13238,-0.29378 -32.04102,-4.67968 -2.70701,-2.4187 -3.17165,-3.62288 -3.7539,-9.70118 -0.36561,-3.8167 -1.23545,-7.97724 -1.9336,-9.24414 -2.29285,-4.16085 -8.36392,-6.5569 -13.90234,-6.12695 z m 2.57422,5.4668 c 1.53387,0.23284 3.03739,1.00773 4.55078,2.33203 4.668,4.0846 3.94295,10.88729 -1.45703,13.67969 -4.17621,2.1596 -6.73088,1.78279 -9.98438,-1.47071 -4.634,-4.634 -3.69036,-10.59378 2.15625,-13.61718 1.63628,-0.84615 3.20051,-1.15667 4.73438,-0.92383 z m 95,0 c 1.53387,0.23284 3.03739,1.00773 4.55078,2.33203 4.30305,3.7652 3.85779,10.44612 -0.9043,13.5664 -3.65393,2.39412 -7.24889,1.93078 -10.53711,-1.35742 -4.634,-4.634 -3.69036,-10.59378 2.15625,-13.61718 1.63628,-0.84615 3.20051,-1.15667 4.73438,-0.92383 z m 357.31836,2.46484 c 4.166,0 8.86718,4.7716 8.86718,9 0,2.1525 -0.92882,4.08117 -2.92382,6.07617 -3.9767,3.9767 -8.21995,3.93436 -12.27735,-0.12304 -2.6322,-2.6322 -2.96448,-3.55 -2.45508,-6.75 0.7251,-4.5548 4.63387,-8.20313 8.78907,-8.20313 z m -814.671879,0.12305 c 2.584058,0.58567 4.890744,2.47469 6.152344,5.49414 1.27665,3.0555 1.261249,3.84345 -0.132813,6.78125 -0.867508,1.8281 -2.701801,3.83669 -4.076171,4.46289 -3.86947,1.7631 -6.118368,1.37497 -9.3359379,-1.61133 -4.33837,-4.0265 -4.502445,-9.01703 -0.421875,-12.79883 2.3699099,-2.19635 5.2303959,-2.9138 7.8144529,-2.32812 z m 609.671879,42.87695 c 7.5729,0 11.63401,9.72102 6.41406,15.35352 -1.34874,1.4553 -2.88669,2.64648 -3.41797,2.64648 -0.53128,0 -1.5644,0.17126 -2.29687,0.38086 -3.49757,1.001 -8.36543,-2.06109 -9.97657,-6.27539 -1.18854,-3.1089 0.59766,-8.61032 3.44336,-10.60352 1.18029,-0.8267 3.80526,-1.50195 5.83399,-1.50195 z m -402.35352,0.16992 c 1.19621,-0.21438 2.44466,-0.18578 3.67188,0.10743 1.63629,0.39091 3.23454,1.25408 4.625,2.64453 4.97685,4.9768 3.2807,12.71095 -3.29102,15.00195 -3.54001,1.2343 -3.57544,1.2355 -6.39648,0.0957 -3.88923,-1.5714 -6.63087,-6.13793 -6.01368,-10.01953 0.69399,-4.3646 3.81569,-7.18694 7.4043,-7.83008 z m 187.7207,13.33008 h 12.5 12.5 v 18 18 l -11.5,0.25195 c -6.325,0.1385 -12.07449,-0.11991 -12.77539,-0.57421 -0.9701,-0.6287 -1.20885,-4.98696 -1,-18.25196 z m 287.91797,13.99414 c 0.98403,-0.0448 1.91028,0.0662 2.6875,0.36328 6.52325,2.4939 8.60402,10.88904 3.8711,15.61914 -4.50905,4.5063 -12.16645,3.77557 -14.95118,-1.42773 -1.49645,-2.7962 -1.25215,-8.27715 0.47852,-10.74805 1.49491,-2.13427 4.96198,-3.67216 7.91406,-3.80664 z m -547.8457,0.0391 c 0.96862,-0.003 1.97246,0.15043 2.99023,0.48633 6.35623,2.0977 8.59963,10.37913 4.1875,15.45703 -4.21029,4.8456 -12.25041,4.01431 -15.35546,-1.58789 -3.67672,-6.63355 1.39737,-14.33408 8.17773,-14.35547 z m 89.32617,9.92383 c -1.5005,-0.12139 -3.00501,-0.0569 -4.48047,0.17578 -9.8364,1.55127 -18.35988,10.60116 -15.43945,22.19922 1.53849,6.1099 4.17225,9.53734 9.26172,12.05664 5.43113,2.6881 11.91561,2.69846 17.4375,0.0254 10.35776,-5.0141 13.19722,-18.96985 5.67773,-27.90625 -3.4948,-4.15332 -7.95553,-6.18661 -12.45703,-6.55078 z m 368.01172,0.0762 c -10.41626,0 -17.91016,7.73077 -17.91016,18.47657 0,7.5047 3.3081,12.67561 10.5,16.41601 4.21076,2.19 11.77048,1.98554 16.53907,-0.44726 2.17748,-1.1108 5.19587,-3.89099 6.70898,-6.17969 2.27208,-3.4366 2.74938,-5.24956 2.73438,-10.41016 -0.0159,-5.4768 -0.40094,-6.71976 -3.10743,-10.06836 -4.5447,-5.6228 -8.84203,-7.78711 -15.46484,-7.78711 z m -87.68555,0.67383 c -6.45507,-0.009 -12.89785,3.27306 -16.25195,9.84766 -4.29158,8.4122 -1.30374,19.2118 6.54688,23.6582 8.75422,4.9581 21.19991,1.67763 25.48242,-6.7168 2.37909,-4.6634 2.64456,-12.84583 0.54882,-16.89843 -3.40457,-6.5837 -9.87109,-9.8819 -16.32617,-9.89063 z m -194.47851,0.16016 c -1.46362,0.0468 -2.95192,0.26907 -4.43946,0.68555 -15.40543,4.3133 -17.73958,24.41012 -3.8496,33.14062 4.77255,2.9998 15.05744,2.17529 20.01171,-1.60351 3.90632,-2.97952 7.47197,-9.37611 7.50977,-13.47461 0.0994,-10.78525 -8.98711,-19.07591 -19.23242,-18.74805 z m 194.2539,8.63281 c 3.66676,0 9,4.65592 9,7.85742 0,3.72 -1.89397,7.03505 -4.9082,8.59375 -4.5905,2.3738 -8.64185,1.45479 -11.48437,-2.60351 -3.83161,-5.4704 0.64078,-13.84766 7.39257,-13.84766 z m 89.0586,0.11133 c 6.15518,0.76682 10.89403,8.4723 5.6914,14.29492 -2.84589,3.185 -6.3929,3.93977 -10.32812,2.19727 -5.8718,-2.6001 -6.7874,-10.59684 -1.67383,-14.61914 2.05083,-1.61318 4.25882,-2.12866 6.31055,-1.87305 z m -371.17188,0.0625 c 2.10219,0.0212 4.28307,0.84165 6.18946,2.74805 4.59964,4.5996 3.69097,10.5942 -2.05664,13.5664 -4.51566,2.3352 -8.58702,1.39278 -11.41211,-2.64062 -4.62661,-6.6054 0.97272,-13.73737 7.27929,-13.67383 z m 86.29688,0.17969 c 2.4696,-0.5342 5.27674,0.16147 7.74023,2.23437 4.19412,3.5291 4.2526,8.38808 0.15235,12.48828 -6.8133,6.8133 -17.17743,-0.47817 -13.61133,-9.57617 1.116,-2.8472 3.24914,-4.61228 5.71875,-5.14648 z m 86.3164,10.14648 h 12.5 12.5 l 0.26954,21.37305 c 0.18867,14.9226 -0.0733,21.7887 -0.8711,22.75 -1.57512,1.8979 -23.72656,1.98986 -24.45117,0.10156 -0.26901,-0.701 -0.36755,-10.9386 -0.21875,-22.75 z m 418.31641,1.55469 c 2.43489,-0.4902 5.07632,0.20171 7.00977,2.25976 3.6833,3.9208 2.76806,9.80946 -1.89844,12.22266 -3.4157,1.7663 -3.75354,1.77347 -6.92774,0.16797 -3.7753,-1.9096 -5.47772,-6.13776 -3.95312,-9.81836 1.1059,-2.66995 3.33464,-4.34183 5.76953,-4.83203 z m -152.44727,2.97266 c -4.52371,0.39859 -8.78354,2.54264 -12.09179,6.31054 -7.4259,8.4576 -6.15027,20.13339 2.95117,26.99219 1.79881,1.3556 4.17148,2.68397 5.27148,2.95117 13.64918,3.3159 26.54206,-8.23443 23.63477,-21.17383 -1.39694,-6.2174 -4.24609,-10.24225 -9.05469,-12.78515 -2.00865,-1.0622 -4.07005,-1.76127 -6.125,-2.10742 -1.54121,-0.25964 -3.07803,-0.32038 -4.58594,-0.1875 z m -509.28515,0.0723 c -1.91014,0.15379 -3.86801,0.6177 -5.83008,1.4375 -4.95886,2.072 -7.18825,4.20509 -9.37305,8.96289 -2.25431,4.9092 -2.37832,10.37474 -0.34375,15.24414 2.06191,4.9348 4.18699,7.16979 8.96289,9.42969 8.97074,4.245 20.16425,0.28267 24.5,-8.67383 6.47328,-13.37201 -4.54508,-27.47694 -17.91601,-26.40039 z m -0.006,9.36133 c 0.99851,-0.16822 2.01108,-0.1626 2.98242,0.0508 6.56005,1.4409 9.20595,10.3117 4.48438,15.0332 -6.72959,6.7296 -18.13485,-0.87661 -14.49415,-9.66601 1.1724,-2.83035 4.03181,-4.91332 7.02735,-5.41797 z m 509.55859,0.0176 c 1.97656,-0.27987 4.06906,0.19477 6.08594,1.45117 5.13009,3.1956 5.63579,9.79311 1.07617,14.04101 -2.45495,2.2871 -8.35103,2.6914 -10.88476,0.7461 -4.30441,-3.3048 -5.06285,-9.29991 -1.66407,-13.16211 1.55004,-1.76145 3.41016,-2.79631 5.38672,-3.07617 z m -115.56054,1.72656 c -3.8712,0.47233 -7.48446,2.45808 -10.69141,5.92578 -5.5005,5.9478 -6.76136,13.27534 -3.50391,20.36914 2.25106,4.9021 4.81963,7.27358 9.80274,9.05078 5.65268,2.016 9.33504,1.74271 15.08203,-1.12109 14.08915,-7.021 13.35871,-25.92435 -1.25781,-32.56445 -1.85976,-0.84488 -3.69051,-1.38683 -5.48047,-1.62696 -1.34247,-0.18009 -2.66078,-0.19064 -3.95117,-0.0332 z m -282.73829,0.0391 c -1.95743,0.22086 -3.95625,0.76116 -5.95312,1.66797 -13.9947,6.3552 -13.94947,26.68493 0.0742,33.26953 8.90909,4.1831 20.25657,0.16886 24.54101,-8.68164 6.62723,-13.68999 -4.96007,-27.80187 -18.66211,-26.25586 z m 2.00782,9.35547 c 7.84489,0 11.74407,9.40051 6.19922,14.94531 -4.93758,4.9376 -13.78848,1.91783 -15.14649,-5.16797 -0.87357,-4.5581 3.90284,-9.77734 8.94727,-9.77734 z m 284.8457,0.16797 c 1.65858,0.33429 3.24645,1.20164 4.53125,2.69531 3.11695,3.6236 3.03912,8.86523 -0.17773,12.08203 -5.32735,5.3274 -14.94532,1.50244 -14.94532,-5.94336 0,-6.04582 5.61607,-9.83684 10.5918,-8.83398 z m 186.63441,39.22667 c -13.08633,-0.98901 -15.95598,-2.84973 -23.83349,30.81808 -11.22849,47.98963 -32.80865,99.83904 -62.13672,134.58594 -12.9675,15.3635 -12.35547,14.31456 -12.35547,21.16406 0,6.7704 0.49606,7.5702 15.13477,24.4375 25.70563,29.6189 50.74174,82.79997 60.89844,129.35547 2.6522,12.1568 8.82683,17.92969 19.17773,17.92969 3.9643,0 6.20809,-0.62949 9.11719,-2.55469 7.7874,-5.1535 7.17187,9.44984 7.17187,-169.97266 0,-131.0815 1.46329,-161.08742 1.33789,-164.84961 -0.66282,-19.88514 1.96824,-19.18775 -14.51221,-20.91378 z m -2.36864,13.69498 c 2.04542,0.19947 4.00041,1.25696 5.69921,3.15821 4.585,5.1315 3.63245,11.65732 -2.13671,14.64062 -3.58191,1.8526 -5.73776,1.85588 -9.13086,0.0117 -5.7507,-3.1254 -6.11487,-11.74969 -0.66797,-15.81641 2.0561,-1.53507 4.1909,-2.1936 6.23633,-1.99414 z M 58.496094,767.51367 c 1.604181,-0.0975 3.2455,0.21743 4.773437,1.03516 2.31034,1.2365 4.945313,6.04113 4.945313,9.01953 0,1.1823 -1.530391,3.68078 -3.400391,5.55078 -4.42933,4.4293 -8.567641,4.58466 -12.675781,0.47656 -2.16411,-2.1641 -2.923828,-3.87107 -2.923828,-6.57617 0,-5.21557 4.468706,-9.2134 9.28125,-9.50586 z M 108.5918,892.66602 c -5.79156,0.39378 -11.462968,3.89536 -13.906253,10.29296 -2.98984,7.8288 0.320475,16.16368 7.800783,19.64258 7.80311,3.629 16.59459,0.59424 20.47851,-7.06836 2.77574,-5.4762 2.83936,-9.16477 0.25,-14.51367 -2.92049,-6.03295 -8.83148,-8.7473 -14.62304,-8.35351 z m -93.878909,1.26562 c 1.215484,-0.0514 2.447171,0.14964 3.623047,0.63672 2.9262,1.212 5.878906,5.40788 5.878906,8.35352 0,2.91659 -2.421671,6.76377 -5.144532,8.17187 -1.515609,0.7837 -3.579054,1.42578 -4.583984,1.42578 -4.8375196,0 -10.1090361,-7.67862 -8.3789061,-12.20312 1.4541,-3.80265 4.9590161,-6.23054 8.6054691,-6.38477 z m 815.994139,0.29102 c 3.0407,-0.0862 4.30611,0.50547 6.63281,3.10937 3.8406,4.2984 3.69481,7.56691 -0.52539,11.78711 -4.1902,4.1902 -7.48879,4.36334 -11.68359,0.61524 -6.2931,-5.62281 -2.82403,-15.27362 5.57617,-15.51172 z m -720.02734,5.41992 c 2.39168,0.47012 4.62361,2.14418 6.04687,4.89648 1.91304,3.6994 1.08317,7.3666 -2.25976,9.9961 -8.22804,6.4722 -18.213252,-5.1461 -10.79688,-12.5625 2.06633,-2.0663 4.61808,-2.80021 7.00977,-2.33008 z m 638.48828,0.87695 c 7.377,0 11.82191,6.66509 8.59961,12.89649 -0.8656,1.6738 -2.43995,3.50596 -3.49805,4.07226 -3.6427,1.9496 -8.03526,1.20302 -11.13086,-1.89258 -3.7265,-3.7265 -3.84264,-7.8326 -0.33594,-12 2.0492,-2.4354 3.37614,-3.07617 6.36524,-3.07617 z M 89.337891,936.79492 c -6.6954,-0.5886 -12.911137,2.81185 -15.873047,8.68555 -1.2375,2.454 -2.25,5.62216 -2.25,7.03906 0,4.9471 4.157897,11.328 8.960937,13.75 5.49664,2.7718 9.199495,2.83847 14.472657,0.26367 14.442632,-7.0518 10.642172,-28.33608 -5.310547,-29.73828 z m -0.695313,7.16016 c 6.87401,1.3748 9.360886,8.96681 4.597656,14.03711 -5.04614,5.3713 -14.02539,1.63205 -14.02539,-5.83985 0,-4.7775 4.960904,-9.09066 9.427734,-8.19726 z m -3.791016,49.24414 c -5.761414,0.25295 -11.398535,3.14481 -14.359374,8.56448 -1.67053,3.0578 -1.777344,9.3345 -1.777344,103.9316 v 100.6758 l 2.103515,2.8242 c 1.39025,1.8662 9.18743,6.4809 23,13.6133 11.493191,5.9348 40.471481,20.9855 64.396481,33.4453 73.1867,38.1148 77.09786,40.1311 78.82618,40.6445 3.07478,0.9135 11.38613,-0.2948 15.05078,-2.1875 1.99257,-1.0291 4.97304,-3.7848 6.62304,-6.125 2.78914,-3.9558 2.99637,-4.8644 2.94727,-12.9121 -0.0871,-14.258 -1.73152,-16.0483 -24.44727,-26.6347 -45.71294,-21.304 -132.80416,-64.7069 -134.23437,-66.8965 -0.40408,-0.6186 -0.742,-40.9955 -0.75,-89.7266 l -0.0156,-88.6015 -2.253902,-3.3438 c -3.462205,-5.13755 -9.347959,-7.52443 -15.109376,-7.27148 z m 0.71875,8.24808 c 2.246022,-0.03 4.516787,0.9109 6.576172,2.8221 4.35371,4.0408 4.535105,9.985 0.421875,13.797 -6.03695,5.5949 -16.353515,1.1496 -16.353515,-7.047 0,-2.7051 0.759718,-4.4139 2.923828,-6.578 1.96489,-1.9649 4.185622,-2.9642 6.43164,-2.9941 z m 669.005858,3.3632 c 7.26478,0.7893 11.43976,9.7028 5.88867,15.5957 -3.4254,3.6368 -6.97616,4.4853 -10.69336,2.5566 -4.0123,-2.0815 -5.48839,-4.366 -5.52539,-8.5585 -0.0397,-4.5086 2.95458,-8.5035 7.04688,-9.4023 1.1446,-0.2514 2.24538,-0.3042 3.2832,-0.1915 z m -34.37695,174.7735 c -5.06709,-0.1056 -10.25201,2.0143 -12.96875,6.4101 -1.10867,1.7939 -2.01563,4.8394 -2.01563,6.7696 0,1.9302 -0.5625,3.9707 -1.25,4.5332 -1.81464,1.4849 -83.1542,42.3475 -103.75,52.1211 -9.625,4.5675 -18.72678,9.4575 -20.22656,10.8672 -5.87138,5.5185 -7.1166,19.5595 -2.4414,27.5371 2.59379,4.426 5.94226,6.9556 11.6621,8.8125 5.62019,1.8246 10.63166,0.081 30.20118,-10.5118 10.61736,-5.7472 37.30468,-19.8956 59.30468,-31.4414 22,-11.5458 41.29486,-22.0136 42.87696,-23.2597 5.3793,-4.2368 7.09691,-12.4411 4.10351,-19.6055 l -1.52148,-3.6387 3.54101,-2.9199 c 6.5,-5.3578 8.15995,-11.9084 4.74805,-18.7383 -2.24755,-4.4991 -7.19658,-6.83 -12.26367,-6.9355 z m -0.16211,5.2734 c 6.24424,-0.3057 10.66924,7.2236 6.19922,12.9063 -3.4022,4.3251 -9.23801,4.1379 -12.41406,-0.3965 -2.92,-4.1689 -1.24697,-9.9259 3.44921,-11.8711 0.94564,-0.3917 1.8736,-0.595 2.76563,-0.6387 z m -9.13672,24.2891 c 1.84297,0.2944 3.64582,1.4476 5.56445,3.4844 3.71552,3.9443 3.65418,8.1369 -0.17382,11.9648 -1.91549,1.9155 -3.89751,2.8995 -5.75,2.8555 -6.38573,-0.1529 -9.68691,-3.9291 -9.14844,-10.4668 0.25854,-3.1391 0.98231,-4.3438 3.70117,-6.1699 2.08114,-1.3978 3.96367,-1.9625 5.80664,-1.668 z m -467.65625,58.7773 c 2.61547,0.4503 4.95543,2.1512 6.49805,5.0157 2.12502,3.9459 1.44494,7.6976 -2.02344,11.166 -3.23607,3.2361 -8.43542,3.2358 -12.19727,0 -2.33007,-2.0043 -2.80664,-3.2055 -2.80664,-7.0879 0,-3.7153 0.48834,-5.0703 2.37696,-6.5996 2.64672,-2.1432 5.53688,-2.9445 8.15234,-2.4942 z m 351.14844,0.064 c 1.32625,-0.1203 2.67361,0.054 3.94336,0.5801 5.67464,2.3505 7.57108,9.8906 3.6289,14.4277 -2.4838,2.8586 -7.88778,4.0654 -11.44726,2.5566 -3.0533,-1.2943 -5.57456,-6.5196 -4.81446,-9.9804 0.92269,-4.2009 4.71069,-7.2232 8.68946,-7.584 z m 159.11133,92.5312 c 9.3257,0 12.79655,11.1896 5.34375,17.2266 -5.5617,4.5051 -14.63282,-0.2843 -14.63282,-7.7266 0,-4.9716 4.42827,-9.5 9.28907,-9.5 z m 77.07812,5 c 5.3738,0 9.08789,3.6778 9.08789,9 0,3.3672 -0.5585,4.6919 -2.7832,6.6055 -3.9893,3.4315 -8.99525,3.2236 -12.74805,-0.5293 -1.995,-1.995 -2.92383,-3.9237 -2.92383,-6.0762 0,-4.4955 4.68819,-9 9.36719,-9 z m -817.007811,0.25 c 1.082208,-0.1381 2.203388,-0.084 3.3125,0.1758 1.478815,0.3459 2.937395,1.056 4.251953,2.1621 5.03611,4.2376 4.067513,11.8123 -1.904297,14.9004 -3.79793,1.964 -4.861672,1.904 -8.794922,-0.4941 -4.2287896,-2.5783 -5.6446049,-6.1939 -4.1718749,-10.6563 1.1644256,-3.5283 4.0600149,-5.6736 7.3066409,-6.0879 z"
     sodipodi:nodetypes="ssssssssscccsccsssssscsccssssssssssssscssscsccssscccccsssssssssssssssssssssssscssssssssscssssssssssssssssssssssssssssssssssssssssssssscsssssssssssssssssssssssssssssssssscsssssssssssccsscccccccccccccssssssssssscssssscssssssssssssssssssssssssssscsssccccccsccscsssssssssssscsssssssssssscsssscssssssssssssssssssssssssssccccssccssssssssscsssssssscssscsssssssssssssscsssssssssssssssssscssssssssscsscsssssssssssssssssssssssssssssssssssssssssssscssssssssccsssssssscccssssssssccssscssssssssssscccsssssssssscssssssssssscssssssssssssssscsssss" /><metadata
     id="metadata1"><rdf:RDF><cc:Work
         rdf:about=""><dc:title>Toque o Sino - Playfield (vetorizado, simétrico)</dc:title></cc:Work></rdf:RDF></metadata></svg>
